<svg width="32" height="32" viewBox="0 0 32 32" fill="none" xmlns="http://www.w3.org/2000/svg">
<rect opacity="0.08" width="32" height="32" rx="4" fill="#6F99C6"/>
<path fill-rule="evenodd" clip-rule="evenodd" d="M18.4004 16C18.4004 15.5582 18.7586 15.2 19.2004 15.2C20.5222 15.2 21.6004 16.2782 21.6004 17.6C21.6004 18.9218 20.5222 20 19.2004 20C18.7586 20 18.4004 19.6418 18.4004 19.2C18.4004 18.7582 18.7586 18.4 19.2004 18.4C19.6386 18.4 20.0004 18.0382 20.0004 17.6C20.0004 17.1618 19.6386 16.8 19.2004 16.8C18.7586 16.8 18.4004 16.4418 18.4004 16Z" fill="#6F99C6"/>
<path fill-rule="evenodd" clip-rule="evenodd" d="M23.4669 20.8V11.2C23.4669 10.6109 22.9894 10.1334 22.4003 10.1334H9.60026C9.01116 10.1334 8.53359 10.6109 8.53359 11.2V20.8C8.53359 21.3891 9.01116 21.8667 9.60026 21.8667H22.4003C22.9894 21.8667 23.4669 21.3891 23.4669 20.8ZM9.60026 8.53336C8.1275 8.53336 6.93359 9.72726 6.93359 11.2V20.8C6.93359 22.2728 8.1275 23.4667 9.60026 23.4667H22.4003C23.873 23.4667 25.0669 22.2728 25.0669 20.8V11.2C25.0669 9.72726 23.873 8.53336 22.4003 8.53336H9.60026Z" fill="black"/>
<path fill-rule="evenodd" clip-rule="evenodd" d="M7.46693 12.5334C7.46693 12.0915 7.8251 11.7334 8.26693 11.7334L21.0669 11.7334C21.5088 11.7334 21.8669 12.0915 21.8669 12.5334C21.8669 12.9752 21.5088 13.3334 21.0669 13.3334L8.26693 13.3334C7.8251 13.3334 7.46693 12.9752 7.46693 12.5334Z" fill="black"/>
</svg>
