<svg width="22" height="22" viewBox="0 0 22 22" fill="none" xmlns="http://www.w3.org/2000/svg">
    <path fill-rule="evenodd" clip-rule="evenodd"
          d="M8.86686 6.46667C9.18556 6.46667 9.47386 6.65583 9.60073 6.94819L11.2505 10.7497L15.052 12.3995C15.3444 12.5263 15.5335 12.8146 15.5335 13.1333C15.5335 13.452 15.3444 13.7403 15.052 13.8672L11.2505 15.517L9.60073 19.3185C9.47386 19.6108 9.18556 19.8 8.86686 19.8C8.54817 19.8 8.25987 19.6108 8.13299 19.3185L6.48321 15.517L2.68171 13.8672C2.38936 13.7403 2.2002 13.452 2.2002 13.1333C2.2002 12.8146 2.38936 12.5263 2.68171 12.3995L6.48321 10.7497L8.13299 6.94819C8.25987 6.65583 8.54817 6.46667 8.86686 6.46667ZM8.86686 9.27617L7.82523 11.6763C7.74446 11.8625 7.59598 12.0109 7.40985 12.0917L5.00969 13.1333L7.40985 14.175C7.59598 14.2557 7.74446 14.4042 7.82523 14.5904L8.86686 16.9905L9.90849 14.5904C9.98927 14.4042 10.1377 14.2557 10.3239 14.175L12.724 13.1333L10.3239 12.0917C10.1377 12.0109 9.98927 11.8625 9.90849 11.6763L8.86686 9.27617Z"
          fill="black"/>
    <path fill-rule="evenodd" clip-rule="evenodd"
          d="M15.5333 1.6665C15.852 1.6665 16.1403 1.85566 16.2671 2.14802L17.1906 4.27585L19.3184 5.1993C19.6108 5.32618 19.7999 5.61447 19.7999 5.93317C19.7999 6.25187 19.6108 6.54017 19.3184 6.66704L17.1906 7.59049L16.2671 9.71832C16.1403 10.0107 15.852 10.1998 15.5333 10.1998C15.2146 10.1998 14.9263 10.0107 14.7994 9.71833L13.876 7.59049L11.7481 6.66704C11.4558 6.54017 11.2666 6.25187 11.2666 5.93317C11.2666 5.61447 11.4558 5.32618 11.7481 5.1993L13.876 4.27585L14.7994 2.14802C14.9263 1.85566 15.2146 1.6665 15.5333 1.6665ZM15.5333 4.476L15.218 5.2025C15.1372 5.38863 14.9887 5.53711 14.8026 5.61788L14.0761 5.93317L14.8026 6.24846C14.9887 6.32923 15.1372 6.47771 15.218 6.66384L15.5333 7.39034L15.8486 6.66384C15.9293 6.47771 16.0778 6.32923 16.2639 6.24846L16.9904 5.93317L16.2639 5.61788C16.0778 5.53711 15.9293 5.38863 15.8486 5.2025L15.5333 4.476Z"
          fill="#B182BC"/>
</svg>
