<svg width="133" height="16" viewBox="0 0 133 16" fill="none" xmlns="http://www.w3.org/2000/svg">
    <path d="M15.8819 0.521398V4.26605H10.1178V15.5H5.74363V4.26605H0V0.521398H15.8819Z" fill="white"/>
    <path d="M29.8588 0.521398H34.233V15.5H29.8588V9.87233H21.9076V15.5H17.5539V0.521398H21.9076V6.12768H29.8588V0.521398Z"
          fill="white"/>
    <path d="M41.2546 11.7554H51.5972V15.5H36.9008V0.521398H51.5972V4.26605H41.2546V6.12768H50.8V9.87233H41.2546V11.7554Z"
          fill="white"/>
    <path d="M74.2641 7.62554C75.327 8.39586 76.0424 9.70114 76.0424 11.1776C76.0424 13.5528 74.1824 15.5 71.9135 15.5L59.7518 15.4786V0.5L71.1164 0.521398C73.3852 0.521398 75.2452 2.44722 75.2452 4.8224C75.2452 5.8923 74.8773 6.87661 74.2641 7.62554ZM69.8696 4.26605H64.1055V6.34166H69.8696C70.4214 6.34166 70.8711 5.8709 70.8711 5.29315C70.8711 4.71541 70.4214 4.26605 69.8696 4.26605ZM70.6667 11.7554C71.2186 11.7554 71.6683 11.2846 71.6683 10.7068C71.6683 10.1291 71.2186 9.65835 70.6667 9.65835H64.1055V11.7554H70.6667Z"
          fill="white"/>
    <path d="M90.7159 15.4786L89.9392 13.831H82.2538L81.477 15.4786H76.6941L83.705 0.521398H88.4879L95.4988 15.4786H90.7159ZM88.1609 10.0863L86.076 5.61412L83.9707 10.0863H88.1609Z"
          fill="white"/>
    <path d="M96.4584 0.521398H112.34V4.18046L103.306 11.7554H112.34V15.5H96.4584V11.8195L105.493 4.26605H96.4584V0.521398Z"
          fill="white"/>
    <path d="M127.314 15.4786L126.537 13.831H118.852L118.075 15.4786H113.292L120.303 0.521398H125.086L132.097 15.4786H127.314ZM124.759 10.0863L122.674 5.61412L120.569 10.0863H124.759Z"
          fill="white"/>
</svg>
