<svg width="20" height="14" viewBox="0 0 20 14" fill="none" xmlns="http://www.w3.org/2000/svg">
    <g clip-path="url(#clip0_1899_10732)">
        <path d="M13.5215 3.77763V0.794391H5.04964H0.222656V3.77763H5.03215V12.7273H8.6949V12.7164V3.77763H8.69528H13.5215Z"
              fill="black"/>
        <path fill-rule="evenodd" clip-rule="evenodd"
              d="M13.5215 0.794391V3.77763H13.5219C13.984 3.77763 14.3606 4.13562 14.3606 4.59589C14.3606 5.05616 13.984 5.4312 13.5219 5.4312H8.69528V3.77763H8.6949V12.7164L15.2335 12.7273C17.1333 12.7273 18.6908 11.1761 18.6908 9.28383C18.6908 8.10759 18.0918 7.06771 17.2018 6.45402C17.7152 5.85737 18.0233 5.07321 18.0233 4.22085C18.0233 2.32863 16.4658 0.794391 14.566 0.794391L5.04964 0.777344V0.794391H13.5215ZM15.0281 8.9088C15.0281 9.36907 14.6515 9.74411 14.1894 9.74411H8.69528V8.07349H14.1894C14.6515 8.07349 15.0281 8.44853 15.0281 8.9088Z"
              fill="black"/>
    </g>
    <defs>
        <clipPath id="clip0_1899_10732">
            <rect width="19.5556" height="12.4444" fill="white" transform="translate(0.222656 0.777344)"/>
        </clipPath>
    </defs>
</svg>
