<svg width="16" height="19" viewBox="0 0 16 19" fill="none" xmlns="http://www.w3.org/2000/svg">
    <path d="M3.83333 6.66658V4.99992C3.83333 3.89485 4.27232 2.83504 5.05372 2.05364C5.83512 1.27224 6.89493 0.833252 8 0.833252C9.10507 0.833252 10.1649 1.27224 10.9463 2.05364C11.7277 2.83504 12.1667 3.89485 12.1667 4.99992V6.66658H14.6667C14.8877 6.66658 15.0996 6.75438 15.2559 6.91066C15.4122 7.06694 15.5 7.2789 15.5 7.49992V17.4999C15.5 17.7209 15.4122 17.9329 15.2559 18.0892C15.0996 18.2455 14.8877 18.3333 14.6667 18.3333H1.33333C1.11232 18.3333 0.900358 18.2455 0.744078 18.0892C0.587797 17.9329 0.5 17.7209 0.5 17.4999V7.49992C0.5 7.2789 0.587797 7.06694 0.744078 6.91066C0.900358 6.75438 1.11232 6.66658 1.33333 6.66658H3.83333ZM3.83333 8.33325H2.16667V16.6666H13.8333V8.33325H12.1667H10.5H5.5H3.83333ZM5.5 6.66658H10.5V4.99992C10.5 4.33688 10.2366 3.70099 9.76777 3.23215C9.29893 2.76331 8.66304 2.49992 8 2.49992C7.33696 2.49992 6.70107 2.76331 6.23223 3.23215C5.76339 3.70099 5.5 4.33688 5.5 4.99992V6.66658Z"
          />
</svg>
