<svg width="16" height="14" viewBox="0 0 16 14" fill="none" xmlns="http://www.w3.org/2000/svg">
<path d="M14.1193 7.5291L14.1167 7.53166L13.3103 6.83518L14.1193 7.5291ZM14.1193 7.5291C14.1195 7.52883 14.1198 7.52856 14.12 7.52828L14.1091 7.51894L14.1193 7.5291ZM5.88568 9.66655L7.99996 11.7811L5.88568 9.66655ZM10.1145 9.66683L10.1217 9.65967L10.6325 10.1705L10.633 10.171L11.0597 10.5977L11.0512 10.6062L10.601 11.0578L10.6004 11.0583L8.94131 12.7223L7.99996 13.6664L10.1145 9.66683ZM12.7954 6.98633L12.7957 6.98602L13.6604 7.98931L12.8475 8.8046L11.0616 10.5958L10.6332 10.1674L10.6327 10.167L10.1234 9.65792L10.6709 9.11053L10.6714 9.11002L11.981 7.80058L12.7954 6.98633Z" fill="#A2A2A2" stroke="#A2A2A2" stroke-width="53"/>
</svg>
