<svg viewBox="0 0 16 16"  xmlns="http://www.w3.org/2000/svg">
<mask id="path-1-inside-1_2045_1090" fill="white">
<path d="M7.99996 14.6664L1.87196 8.53844C0.418628 6.82644 0.494628 4.25844 2.10729 2.6451C2.88064 1.87178 3.91779 1.41947 5.0107 1.37891C6.10361 1.33836 7.17143 1.71255 7.99996 2.42644C8.82765 1.71255 9.89454 1.33783 10.9869 1.37735C12.0792 1.41687 13.1162 1.86771 13.8901 2.63954C14.6641 3.41137 15.1177 4.44716 15.1602 5.53936C15.2027 6.63156 14.8309 7.69947 14.1193 8.5291L7.99996 14.6664ZM13.108 7.66044C13.6005 7.08604 13.8578 6.34673 13.8283 5.59064C13.7988 4.83455 13.4847 4.11752 12.9489 3.58324C12.4131 3.04895 11.6952 2.73687 10.939 2.70953C10.1829 2.68218 9.44429 2.94159 8.87129 3.43577L7.99996 4.18777L7.12863 3.43577C6.55563 2.94159 5.81705 2.68218 5.06088 2.70953C4.30471 2.73687 3.5868 3.04895 3.05099 3.58324C2.51519 4.11752 2.20108 4.83455 2.17158 5.59064C2.14209 6.34673 2.3994 7.08604 2.89196 7.66044L2.96796 7.74844L7.99996 12.7811L13.032 7.74844L13.108 7.66044Z"/>
</mask>
<path d="M7.99996 14.6664L1.87196 8.53844C0.418628 6.82644 0.494628 4.25844 2.10729 2.6451C2.88064 1.87178 3.91779 1.41947 5.0107 1.37891C6.10361 1.33836 7.17143 1.71255 7.99996 2.42644C8.82765 1.71255 9.89454 1.33783 10.9869 1.37735C12.0792 1.41687 13.1162 1.86771 13.8901 2.63954C14.6641 3.41137 15.1177 4.44716 15.1602 5.53936C15.2027 6.63156 14.8309 7.69947 14.1193 8.5291L7.99996 14.6664ZM13.108 7.66044C13.6005 7.08604 13.8578 6.34673 13.8283 5.59064C13.7988 4.83455 13.4847 4.11752 12.9489 3.58324C12.4131 3.04895 11.6952 2.73687 10.939 2.70953C10.1829 2.68218 9.44429 2.94159 8.87129 3.43577L7.99996 4.18777L7.12863 3.43577C6.55563 2.94159 5.81705 2.68218 5.06088 2.70953C4.30471 2.73687 3.5868 3.04895 3.05099 3.58324C2.51519 4.11752 2.20108 4.83455 2.17158 5.59064C2.14209 6.34673 2.3994 7.08604 2.89196 7.66044L2.96796 7.74844L7.99996 12.7811L13.032 7.74844L13.108 7.66044Z" />
<path d="M7.99996 14.6664L-29.4767 52.1431L8.05503 89.6748L45.5316 52.088L7.99996 14.6664ZM1.87196 8.53844L-38.5326 42.8382L-37.1334 44.4864L-35.6047 46.0151L1.87196 8.53844ZM2.10729 2.6451L-35.369 -34.832L-35.3771 -34.8238L2.10729 2.6451ZM7.99996 2.42644L-26.5956 42.578L8.01751 72.4015L42.6157 42.5606L7.99996 2.42644ZM14.1193 8.5291L51.651 45.9507L53.054 44.5435L54.3477 43.0352L14.1193 8.5291ZM8.87129 3.43577L-25.7434 -36.6993L-25.7502 -36.6934L-25.757 -36.6876L8.87129 3.43577ZM7.99996 4.18777L-26.6283 44.3111L7.99996 74.1969L42.6282 44.3111L7.99996 4.18777ZM7.12863 3.43577L41.7569 -36.6876L41.7501 -36.6934L41.7434 -36.6993L7.12863 3.43577ZM2.89196 7.66044L-37.3411 42.1612L-37.2805 42.2319L-37.2196 42.3023L2.89196 7.66044ZM2.96796 7.74844L-37.1436 42.3904L-35.8791 43.8545L-34.5112 45.2226L2.96796 7.74844ZM7.99996 12.7811L-29.4792 50.2553L7.99996 87.7394L45.4791 50.2553L7.99996 12.7811ZM13.032 7.74844L50.5111 45.2226L51.879 43.8545L53.1435 42.3904L13.032 7.74844ZM45.4766 -22.8102L39.3486 -28.9382L-35.6047 46.0151L-29.4767 52.1431L45.4766 -22.8102ZM42.2765 -25.7613C58.4382 -6.72309 57.7498 21.9484 39.5917 40.114L-35.3771 -34.8238C-56.7605 -13.4315 -57.601 20.376 -38.5326 42.8382L42.2765 -25.7613ZM39.5835 40.1222C30.8983 48.8072 19.2503 53.887 6.97608 54.3425L3.04531 -51.5846C-11.4147 -51.048 -25.137 -45.0637 -35.369 -34.832L39.5835 40.1222ZM6.97608 54.3425C-5.29812 54.7979 -17.2906 50.5954 -26.5956 42.578L42.5956 -37.7251C31.6335 -47.1703 17.5053 -52.1212 3.04531 -51.5846L6.97608 54.3425ZM42.6157 42.5606C33.3201 50.5781 21.3381 54.7865 9.07058 54.3427L12.9031 -51.588C-1.54896 -52.1109 -15.6648 -47.1529 -26.6158 -37.7077L42.6157 42.5606ZM9.07058 54.3427C-3.19687 53.8989 -14.8435 48.8355 -23.5354 40.1673L51.3156 -34.8882C41.0758 -45.1001 27.3552 -51.0651 12.9031 -51.588L9.07058 54.3427ZM-23.5354 40.1673C-32.2273 31.499 -37.3224 19.8663 -37.7997 7.60008L68.1202 3.47864C67.5579 -10.972 61.5554 -24.6763 51.3156 -34.8882L-23.5354 40.1673ZM-37.7997 7.60008C-38.277 -4.66611 -34.1012 -16.6596 -26.1091 -25.977L54.3477 43.0352C63.7631 32.0585 68.6824 17.9292 68.1202 3.47864L-37.7997 7.60008ZM-23.4124 -28.8925L-29.5317 -22.7551L45.5316 52.088L51.651 45.9507L-23.4124 -28.8925ZM53.341 42.1612C62.5354 31.4391 67.3386 17.6386 66.7881 3.52492L-39.1314 7.65635C-39.6229 -4.94516 -35.3344 -17.267 -27.1251 -26.8403L53.341 42.1612ZM66.7881 3.52492C66.2376 -10.5888 60.374 -23.9732 50.3724 -33.9465L-24.4745 41.113C-33.4046 32.2083 -38.6399 20.2579 -39.1314 7.65635L66.7881 3.52492ZM50.3724 -33.9465C40.3707 -43.9199 26.9698 -49.7454 12.8545 -50.2558L9.02355 55.6749C-3.57932 55.2191 -15.5445 50.0178 -24.4745 41.113L50.3724 -33.9465ZM12.8545 -50.2558C-1.26068 -50.7663 -15.0475 -45.9241 -25.7434 -36.6993L43.486 43.5708C33.9361 51.8072 21.6264 56.1307 9.02355 55.6749L12.8545 -50.2558ZM-25.757 -36.6876L-26.6283 -35.9356L42.6282 44.3111L43.4996 43.5591L-25.757 -36.6876ZM42.6282 -35.9356L41.7569 -36.6876L-27.4996 43.5591L-26.6283 44.3111L42.6282 -35.9356ZM41.7434 -36.6993C31.0474 -45.9241 17.2606 -50.7663 3.14539 -50.2558L6.97637 55.6749C-5.6265 56.1307 -17.9361 51.8072 -27.4861 43.5708L41.7434 -36.6993ZM3.14539 -50.2558C-10.9698 -49.7454 -24.3708 -43.9199 -34.3725 -33.9465L40.4745 41.113C31.5444 50.0178 19.5793 55.2191 6.97637 55.6749L3.14539 -50.2558ZM-34.3725 -33.9465C-44.3741 -23.9732 -50.2376 -10.5888 -50.7881 3.52492L55.1313 7.65635C54.6398 20.2579 49.4045 32.2083 40.4745 41.113L-34.3725 -33.9465ZM-50.7881 3.52492C-51.3387 17.6386 -46.5355 31.4391 -37.3411 42.1612L43.125 -26.8403C51.3343 -17.267 55.6228 -4.94516 55.1313 7.65635L-50.7881 3.52492ZM-37.2196 42.3023L-37.1436 42.3904L43.0795 -26.8935L43.0035 -26.9815L-37.2196 42.3023ZM-34.5112 45.2226L-29.4792 50.2553L45.4791 -24.6931L40.4471 -29.7257L-34.5112 45.2226ZM45.4791 50.2553L50.5111 45.2226L-24.4472 -29.7257L-29.4792 -24.6931L45.4791 50.2553ZM53.1435 42.3904L53.2195 42.3023L-27.0036 -26.9815L-27.0796 -26.8935L53.1435 42.3904Z"  mask="url(#path-1-inside-1_2045_1090)"/>
</svg>
