<svg width="20" height="20" viewBox="0 0 20 20" fill="none" xmlns="http://www.w3.org/2000/svg">
<g clip-path="url(#clip0_1008_2150)">
<path d="M3.33325 18.3333C3.33325 16.5651 4.03563 14.8694 5.28587 13.6192C6.53612 12.369 8.23181 11.6666 9.99992 11.6666C11.768 11.6666 13.4637 12.369 14.714 13.6192C15.9642 14.8694 16.6666 16.5651 16.6666 18.3333H14.9999C14.9999 17.0072 14.4731 15.7354 13.5355 14.7977C12.5978 13.86 11.326 13.3333 9.99992 13.3333C8.67384 13.3333 7.40207 13.86 6.46438 14.7977C5.5267 15.7354 4.99992 17.0072 4.99992 18.3333H3.33325ZM9.99992 10.8333C7.23742 10.8333 4.99992 8.59575 4.99992 5.83325C4.99992 3.07075 7.23742 0.833252 9.99992 0.833252C12.7624 0.833252 14.9999 3.07075 14.9999 5.83325C14.9999 8.59575 12.7624 10.8333 9.99992 10.8333ZM9.99992 9.16658C11.8416 9.16658 13.3333 7.67492 13.3333 5.83325C13.3333 3.99159 11.8416 2.49992 9.99992 2.49992C8.15825 2.49992 6.66659 3.99159 6.66659 5.83325C6.66659 7.67492 8.15825 9.16658 9.99992 9.16658Z" fill="black"/>
</g>
<defs>
<clipPath id="clip0_1008_2150">
<rect width="20" height="20" fill="white"/>
</clipPath>
</defs>
</svg>
