<svg width="16" height="19" viewBox="0 0 16 19" fill="none" xmlns="http://www.w3.org/2000/svg">
<path d="M3.99935 6.66683V5.00016C3.99935 3.89509 4.43834 2.83529 5.21974 2.05388C6.00114 1.27248 7.06095 0.833496 8.16602 0.833496C9.27108 0.833496 10.3309 1.27248 11.1123 2.05388C11.8937 2.83529 12.3327 3.89509 12.3327 5.00016V6.66683H14.8327C15.0537 6.66683 15.2657 6.75463 15.4219 6.91091C15.5782 7.06719 15.666 7.27915 15.666 7.50016V17.5002C15.666 17.7212 15.5782 17.9331 15.4219 18.0894C15.2657 18.2457 15.0537 18.3335 14.8327 18.3335H1.49935C1.27834 18.3335 1.06637 18.2457 0.910093 18.0894C0.753813 17.9331 0.666016 17.7212 0.666016 17.5002V7.50016C0.666016 7.27915 0.753813 7.06719 0.910093 6.91091C1.06637 6.75463 1.27834 6.66683 1.49935 6.66683H3.99935ZM3.99935 8.3335H2.33268V16.6668H13.9993V8.3335H12.3327H10.666H5.66602H3.99935ZM5.66602 6.66683H10.666V5.00016C10.666 4.33712 10.4026 3.70124 9.93378 3.2324C9.46494 2.76355 8.82906 2.50016 8.16602 2.50016C7.50297 2.50016 6.86709 2.76355 6.39825 3.2324C5.92941 3.70124 5.66602 4.33712 5.66602 5.00016V6.66683Z" fill="black"/>
</svg>
