<svg width="68" height="20" viewBox="0 0 68 20" fill="none" xmlns="http://www.w3.org/2000/svg">
    <rect width="68" height="20" rx="4" fill="#A2A2A2"/>
    <g clip-path="url(#clip0_1899_10737)">
        <path d="M15.9392 6H14.6044V12.7689H15.9392V6Z" fill="white"/>
        <path d="M13.0711 6.37876H11.7363V13.1475H13.0711V6.37876Z" fill="white"/>
        <path d="M10.203 6.80162H8.86814V13.5716H10.203V6.80162Z" fill="white"/>
        <path d="M7.33482 7.22917H6L6.00001 14H7.33482L7.33482 7.22917Z" fill="white"/>
        <path d="M51.1941 9.60656L49.0448 7.21695H47.7884V12.7497H49.1002V9.21971L51.0624 11.3111H51.3049L53.2333 9.21971V12.7497H54.5452V7.21695H53.2887L51.1941 9.60656Z"
              fill="white"/>
        <path d="M60.7952 7.21695L57.5436 10.813V7.21695H56.2317V12.7497H57.4336L60.6852 9.15362V12.7497H61.997V7.21695H60.7952Z"
              fill="white"/>
        <path d="M40.7223 9.24147C40.7223 10.1224 41.204 10.8163 41.9435 11.1072L40.5569 12.7497H42.1626L43.4239 11.2555H44.7888V12.7497H46.1006V7.21695H42.7608C41.5155 7.21695 40.7223 8.06883 40.7223 9.24147ZM44.7896 8.43553V10.0716H43.004C42.4083 10.0716 42.0888 9.73954 42.0888 9.25275C42.0888 8.76596 42.4195 8.43392 43.004 8.43392L44.7896 8.43553Z"
              fill="white"/>
        <path d="M34.6261 8.3235C34.5459 10.2263 34.1444 11.4546 33.3584 11.4546H33.1617V12.7828L33.3713 12.794C34.9473 12.8819 35.8184 11.4989 35.9613 8.47824H38.0343V12.7497H39.3437V7.21695H34.6703L34.6261 8.3235Z"
              fill="white"/>
        <path d="M29.6878 7.13965C27.9135 7.13965 26.637 8.3679 26.637 9.983C26.637 11.6537 28.0259 12.8384 29.6878 12.8384C31.4188 12.8384 32.7636 11.5876 32.7636 9.983C32.7636 8.37838 31.4188 7.13965 29.6878 7.13965ZM29.6878 11.5103C28.6851 11.5103 28.0019 10.8574 28.0019 9.983C28.0019 9.0868 28.6859 8.45172 29.6878 8.45172C30.6898 8.45172 31.3963 9.11581 31.3963 9.983C31.3963 10.8502 30.6802 11.5103 29.6878 11.5103Z"
              fill="white"/>
        <path d="M25.2457 7.22739H20.6156L20.5715 8.33394C20.5056 9.92809 20.0898 11.4441 19.3038 11.4658L18.9401 11.4771V14.0003L20.2632 13.9976V12.7505H24.8595V13.9976H26.1939V11.4658H25.2457V7.22739ZM23.9338 11.4658H21.1343C21.6079 10.7469 21.8617 9.70645 21.9058 8.48949H23.9338V11.4658Z"
              fill="white"/>
    </g>
    <defs>
        <clipPath id="clip0_1899_10737">
            <rect width="56" height="8" fill="white" transform="translate(6 6)"/>
        </clipPath>
    </defs>
</svg>
