<svg width="126" height="14" viewBox="0 0 126 14" fill="none" xmlns="http://www.w3.org/2000/svg">
<path d="M16.1766 0.0199712V3.51498H10.7968V14H6.71424V3.51498H1.35352V0.0199712H16.1766Z" fill="black"/>
<path d="M29.2217 0.0199712H33.3043V14H29.2217V8.7475H21.8006V14H17.7372V0.0199712H21.8006V5.2525H29.2217V0.0199712Z" fill="black"/>
<path d="M39.8578 10.505H49.5109V14H35.7943V0.0199712H49.5109V3.51498H39.8578V5.2525H48.7669V8.7475H39.8578V10.505Z" fill="black"/>
<path d="M70.6667 6.6505C71.6587 7.36947 72.3264 8.58773 72.3264 9.96576C72.3264 12.1826 70.5904 14 68.4728 14L57.1218 13.98V0L67.7288 0.0199712C69.8464 0.0199712 71.5824 1.8174 71.5824 4.03424C71.5824 5.03281 71.239 5.9515 70.6667 6.6505ZM66.5651 3.51498H61.1853V5.45221H66.5651C67.0802 5.45221 67.4999 5.01284 67.4999 4.47361C67.4999 3.93438 67.0802 3.51498 66.5651 3.51498ZM67.3091 10.505C67.8242 10.505 68.2439 10.0656 68.2439 9.52639C68.2439 8.98716 67.8242 8.54779 67.3091 8.54779H61.1853V10.505H67.3091Z" fill="black"/>
<path d="M86.0217 13.98L85.2967 12.4422H78.1237L77.3987 13.98H72.9346L79.4782 0.0199712H83.9422L90.4857 13.98H86.0217ZM83.637 8.94722L81.6911 4.77318L79.7262 8.94722H83.637Z" fill="black"/>
<path d="M91.3813 0.0199712H106.204V3.43509L97.7722 10.505H106.204V14H91.3813V10.5649L99.8135 3.51498H91.3813V0.0199712Z" fill="black"/>
<path d="M120.18 13.98L119.455 12.4422H112.282L111.557 13.98H107.093L113.636 0.0199712H118.1L124.644 13.98H120.18ZM117.795 8.94722L115.849 4.77318L113.884 8.94722H117.795Z" fill="black"/>
</svg>
