<svg width="32" height="20" viewBox="0 0 32 20" fill="none" xmlns="http://www.w3.org/2000/svg">
    <path fill-rule="evenodd" clip-rule="evenodd"
          d="M16.1493 17.2838C18.2383 15.5412 19.5667 12.9249 19.5667 10C19.5667 7.07506 18.2383 4.45885 16.1493 2.71618C17.8075 1.33289 19.9451 0.5 22.2782 0.5C27.5505 0.5 31.8245 4.75329 31.8245 10C31.8245 15.2467 27.5505 19.5 22.2782 19.5C19.9451 19.5 17.8075 18.6671 16.1493 17.2838ZM16.1493 17.2838C14.491 18.6671 12.3535 19.5 10.0204 19.5C4.74813 19.5 0.474121 15.2467 0.474121 10C0.474121 4.75329 4.74813 0.5 10.0204 0.5C12.3535 0.5 14.491 1.33289 16.1493 2.71618C14.0602 4.45885 12.7319 7.07506 12.7319 10C12.7319 12.9249 14.0602 15.5412 16.1493 17.2838Z"
          fill="#A2A2A2"/>
</svg>
