<svg width="44" height="12" viewBox="0 0 44 12" fill="none" xmlns="http://www.w3.org/2000/svg">
    <path d="M4.12457 0.00204775C4.51712 -0.000303467 5.68378 -0.105504 6.17795 1.56431C6.51083 2.68912 7.04109 4.53161 7.76872 7.09177H8.06506C8.84539 4.39267 9.38143 2.55018 9.67319 1.56431C10.1725 -0.122898 11.4208 0.00208081 11.9201 0.00208081L15.7725 0.00208562V12H11.8461V4.92943H11.5828L9.39397 12H6.43982L4.25102 4.92419H3.98772V12H0.0612793V0.00208562L4.12457 0.00204775Z"
          fill="#A2A2A2"/>
    <path d="M21.4105 0.00170898V7.07755H21.7238L24.3863 1.25914C24.9031 0.101255 26.0046 0.00170898 26.0046 0.00170898H29.8042V11.9997H25.7958V4.92381H25.4826L22.8723 10.7422C22.3555 11.8949 21.2017 11.9997 21.2017 11.9997H17.4021V0.00170898H21.4105Z"
          fill="#A2A2A2"/>
    <path d="M43.659 5.70312C43.0999 7.28947 41.344 8.42557 39.4 8.42557H35.1963V11.9996H31.3845V5.70312H43.659Z"
          fill="#A2A2A2"/>
    <path d="M39.5845 0.00195312H31.1853C31.3852 2.6731 33.6828 4.95978 36.0613 4.95978H43.9246C44.3783 2.73974 42.8162 0.00195312 39.5845 0.00195312Z"
          fill="#A2A2A2"/>
</svg>
