<svg width="102" height="16" viewBox="0 0 102 16" fill="none" xmlns="http://www.w3.org/2000/svg">
<path d="M18.3906 0.799988H15.988V12.984H18.3906V0.799988Z" fill="white"/>
<path d="M13.228 1.48176H10.8253V13.6655H13.228V1.48176Z" fill="white"/>
<path d="M8.06533 2.2429H5.66266V14.4289H8.06533V2.2429Z" fill="white"/>
<path d="M2.90267 3.01249H0.5L0.500009 15.2H2.90268L2.90267 3.01249Z" fill="white"/>
<path d="M81.8492 7.29121L77.9806 2.98991H75.7189V12.9489H78.0803V6.59488L81.6122 10.3594H82.0487L85.5199 6.59488V12.9489H87.8812V2.98991H85.6196L81.8492 7.29121Z" fill="white"/>
<path d="M99.1312 2.98991L93.2784 9.46289V2.98991H90.917V12.9489H93.0804L98.9332 6.47592V12.9489H101.295V2.98991H99.1312Z" fill="white"/>
<path d="M63 6.63404C63 8.21965 63.8671 9.46869 65.1981 9.99239L62.7023 12.9489H65.5926L67.8629 10.2593H70.3197V12.9489H72.681V2.98991H66.6693C64.4278 2.98991 63 4.52329 63 6.63404ZM70.3211 5.18335V8.12825H67.1071C66.0348 8.12825 65.4597 7.53057 65.4597 6.65435C65.4597 5.77814 66.0551 5.18045 67.1071 5.18045L70.3211 5.18335Z" fill="white"/>
<path d="M52.0269 4.98171C51.8824 8.40679 51.1599 10.6176 49.7451 10.6176H49.391V13.0084L49.7682 13.0287C52.605 13.1868 54.173 10.6974 54.4302 5.26024H58.1616V12.9489H60.5186V2.98991H52.1064L52.0269 4.98171Z" fill="white"/>
<path d="M43.138 2.85077C39.9443 2.85077 37.6465 5.06162 37.6465 7.9688C37.6465 10.9761 40.1466 13.1086 43.138 13.1086C46.2537 13.1086 48.6743 10.8571 48.6743 7.9688C48.6743 5.08048 46.2537 2.85077 43.138 2.85077ZM43.138 10.7179C41.333 10.7179 40.1032 9.5428 40.1032 7.9688C40.1032 6.35564 41.3345 5.21249 43.138 5.21249C44.9415 5.21249 46.2133 6.40786 46.2133 7.9688C46.2133 9.52975 44.9242 10.7179 43.138 10.7179Z" fill="white"/>
<path d="M35.1421 3.0087H26.808L26.7285 5.0005C26.61 7.86996 25.8614 10.5987 24.4466 10.6379L23.792 10.6582V15.1999L26.1736 15.1951V12.9503H34.447V15.1951H36.8488V10.6379H35.1421V3.0087ZM32.7808 10.6379H27.7416C28.5942 9.34386 29.0508 7.47102 29.1303 5.28048H32.7808V10.6379Z" fill="white"/>
</svg>
