<svg width="41" height="12" viewBox="0 0 41 12" fill="none" xmlns="http://www.w3.org/2000/svg">
<path d="M17.57 11.8272H14.3298L16.3565 0.210938H19.5965L17.57 11.8272Z" fill="#A2A2A2"/>
<path d="M29.3153 0.494553C28.6762 0.259513 27.6625 0 26.4091 0C23.2093 0 20.956 1.58171 20.9422 3.84309C20.9156 5.51152 22.5555 6.43821 23.782 6.99452C25.0356 7.56299 25.4617 7.93403 25.4617 8.44073C25.4489 9.21894 24.4487 9.57766 23.5158 9.57766C22.2222 9.57766 21.529 9.39272 20.4757 8.95976L20.049 8.77416L19.5956 11.3818C20.3555 11.7027 21.7557 11.9875 23.2093 12C26.6092 12 28.8226 10.4428 28.8488 8.0329C28.8617 6.71054 27.9958 5.69729 26.129 4.86931C24.9957 4.3378 24.3017 3.97941 24.3017 3.43559C24.3149 2.9412 24.8887 2.43482 26.168 2.43482C27.2213 2.41002 27.9953 2.64473 28.5816 2.87961L28.8747 3.00296L29.3153 0.494553Z" fill="#A2A2A2"/>
<path d="M33.6231 7.712C33.89 7.04466 34.9168 4.46185 34.9168 4.46185C34.9033 4.48665 35.1831 3.78219 35.3431 3.34973L35.5695 4.35066C35.5695 4.35066 36.1831 7.13122 36.3164 7.712C35.81 7.712 34.2631 7.712 33.6231 7.712ZM37.6228 0.210938H35.1165C34.3436 0.210938 33.7564 0.420847 33.4229 1.17475L28.61 11.8271H32.0098C32.0098 11.8271 32.5696 10.3934 32.6899 10.0846C33.0629 10.0846 36.3702 10.0846 36.85 10.0846C36.9431 10.4924 37.2367 11.8271 37.2367 11.8271H40.2368L37.6228 0.210938Z" fill="#A2A2A2"/>
<path d="M11.6236 0.210938L8.45035 8.13215L8.10359 6.52563C7.51692 4.67193 5.67702 2.65791 3.62378 1.65649L6.53035 11.8149H9.95679L15.0498 0.210938H11.6236Z" fill="#A2A2A2"/>
<path d="M5.50358 0.210938H0.290394L0.237061 0.445676C4.30367 1.40976 6.99691 3.73365 8.10344 6.52686L6.97015 1.18751C6.78358 0.445511 6.2102 0.235413 5.50358 0.210938Z" fill="#A2A2A2"/>
</svg>
