<svg width="88" height="28" viewBox="0 0 88 28" fill="none" xmlns="http://www.w3.org/2000/svg">
<path d="M18.3867 3.2091C18.1274 2.60431 17.7569 2.04889 17.2506 1.54284C16.769 1.04913 16.201 0.666506 15.5589 0.394967C14.9044 0.13577 14.0154 0 12.904 0H0V17.0576H13.4844C14.6081 17.0576 15.5095 16.9219 16.164 16.6503C16.7937 16.3788 17.3494 15.9961 17.831 15.5148C18.2879 15.0581 18.6583 14.5027 18.9671 13.8238C19.4239 12.7253 19.4733 11.6145 19.0905 10.4913C18.7201 9.35577 18.1274 8.56584 17.3 8.13384C17.6334 7.87465 17.9298 7.52905 18.1891 7.07237C18.4484 6.61569 18.6213 6.04793 18.7077 5.36908C18.7942 4.69023 18.6954 3.96201 18.3867 3.2091ZM12.3483 4.08544C13.0522 4.08544 13.6573 4.5668 13.6573 5.29502C13.6573 6.02324 13.0522 6.46758 12.3483 6.46758H5.13691V4.08544H12.3483ZM12.9287 12.9598H5.13691V10.5654H12.9287C13.6696 10.5654 14.2623 10.9974 14.2623 11.7749C14.2623 12.4785 13.6326 12.9598 12.9287 12.9598Z" fill="black"/>
<path d="M28.6425 0L20.2703 17.0576H25.9876L27.0002 15.0087H36.0268L37.0394 17.0576H42.732L34.3598 0H28.6425ZM28.9759 10.911L31.5073 5.81342L33.977 10.911H28.9759Z" fill="black"/>
<path d="M63.699 12.9598H52.7336L63.699 4.08544V0H44.5837V4.08544H55.5614L44.5837 12.9598V17.0576H63.699V12.9598Z" fill="black"/>
<path d="M73.9105 0L65.5384 17.0576H71.2557L72.2682 15.0087H81.2949L82.3074 17.0576H88L79.6278 0H73.9105ZM74.244 10.911L76.7754 5.81342L79.245 10.911H74.244Z" fill="black"/>
<path d="M5.94385 23.3249C5.86002 23.1294 5.74026 22.9498 5.5766 22.7863C5.42092 22.6267 5.23729 22.503 5.02972 22.4152C4.81815 22.3314 4.53074 22.2875 4.17147 22.2875H3.92311e-06V27.8017H4.35909C4.72234 27.8017 5.01375 27.7578 5.22532 27.67C5.4289 27.5822 5.60853 27.4586 5.76421 27.3029C5.91191 27.1553 6.03167 26.9758 6.13146 26.7563C6.27916 26.4012 6.29513 26.0421 6.17138 25.679C6.05163 25.3119 5.86002 25.0566 5.59256 24.9169C5.70034 24.8331 5.79615 24.7214 5.87998 24.5738C5.9638 24.4261 6.01969 24.2426 6.04763 24.0232C6.07558 23.8037 6.04364 23.5683 5.94385 23.3249ZM3.99184 23.6082C4.21937 23.6082 4.41497 23.7638 4.41497 23.9992C4.41497 24.2346 4.21937 24.3783 3.99184 24.3783H1.66061V23.6082H3.99184ZM4.17945 26.477H1.66061V25.7029H4.17945C4.41896 25.7029 4.61057 25.8426 4.61057 26.094C4.61057 26.3214 4.40699 26.477 4.17945 26.477Z" fill="black"/>
<path d="M9.289 22.2875L6.58254 27.8017H8.43076L8.75809 27.1394H11.6761L12.0035 27.8017H13.8437L11.1372 22.2875H9.289ZM9.39678 25.8147L10.2151 24.1668L11.0135 25.8147H9.39678Z" fill="black"/>
<path d="M20.7096 23.9114C20.7057 23.668 20.6577 23.4446 20.5699 23.2491C20.4382 22.9498 20.2186 22.7104 19.9073 22.5309C19.4323 22.2556 18.6179 22.1159 17.4643 22.1159H17.4284C16.2747 22.1159 15.4604 22.2556 14.9854 22.5309C14.674 22.7104 14.4544 22.9498 14.3227 23.2491C14.2309 23.4566 14.183 23.7 14.183 23.9833C14.183 24.2626 14.2309 24.494 14.3307 24.6815C14.5063 25.0167 14.8017 25.2641 15.133 25.4117C15.3007 25.4875 15.5123 25.5434 15.7638 25.5872C16.0192 25.6311 16.2707 25.6591 16.5182 25.679C16.7657 25.695 17.0731 25.7069 17.4363 25.7189L18.4343 25.7748C18.578 25.7867 18.6499 25.8027 18.7736 25.8506C18.9013 25.8945 18.9732 25.9783 18.9852 26.1099C19.0011 26.3374 18.8375 26.493 18.4942 26.5688C18.2706 26.6167 17.9273 26.6406 17.4643 26.6406H17.4284C16.9493 26.6406 16.5981 26.6167 16.3745 26.5688C16.2069 26.5329 16.0831 26.473 16.0073 26.3972C15.9354 26.3294 15.8995 26.2137 15.8995 26.0461V26.0102H14.183V26.1498C14.187 26.4012 14.2349 26.6207 14.3227 26.8122C14.4544 27.1154 14.674 27.3588 14.9854 27.5384C15.4604 27.8137 16.2747 27.9493 17.4284 27.9493H17.4643C18.598 27.9453 19.4083 27.8057 19.8993 27.5224C20.2107 27.3428 20.4302 27.1034 20.5619 26.8042C20.6538 26.5927 20.7017 26.3453 20.7017 26.07C20.7017 25.7947 20.6538 25.5633 20.554 25.3758C20.3783 25.0246 20.0789 24.7892 19.7476 24.6456C19.5839 24.5698 19.3724 24.5139 19.1169 24.47C18.8654 24.4261 18.6139 24.3942 18.3624 24.3743C18.1149 24.3543 17.8076 24.3424 17.4363 24.3384L16.4583 24.2785C16.3146 24.2586 16.2508 24.2466 16.119 24.2107C15.9913 24.1748 15.9194 24.091 15.8995 23.9673C15.8675 23.7399 16.0152 23.5882 16.3426 23.5045C16.5621 23.4526 16.9054 23.4247 17.3805 23.4207H17.4563C17.9353 23.4247 18.2866 23.4486 18.5101 23.4965C18.6818 23.5324 18.8095 23.5922 18.8854 23.668C18.9572 23.7319 18.9932 23.8516 18.9932 24.0271V24.0511H20.7096V23.9114Z" fill="black"/>
<path d="M23.3363 27.8017V22.2875H21.6757V27.8017H23.3363Z" fill="black"/>
<path d="M29.5635 25.7029C29.5516 25.7389 29.5436 25.7708 29.5316 25.7987C29.4278 26.066 29.2442 26.2735 28.9767 26.4212C28.7093 26.5688 28.3221 26.6406 27.8071 26.6406C26.877 26.6406 26.3022 26.3533 26.0827 25.7748C26.0068 25.6072 25.9669 25.3638 25.9669 25.0406C25.9669 24.7174 26.0068 24.47 26.0827 24.3025C26.3022 23.7319 26.877 23.4446 27.8071 23.4446C28.3181 23.4446 28.7053 23.5204 28.9687 23.672C29.2362 23.8197 29.4238 24.0311 29.5316 24.3025C29.5356 24.3264 29.5436 24.3503 29.5555 24.3783H31.3159C31.272 24.1229 31.2082 23.8995 31.1323 23.7079C30.8808 23.0735 30.4058 22.6346 29.7871 22.4152C29.1763 22.1957 28.5696 22.1199 27.8071 22.1319C27.0447 22.1199 26.4339 22.1957 25.8152 22.4152C25.2044 22.6346 24.7294 23.0735 24.4779 23.7079C24.3262 24.067 24.2504 24.5099 24.2504 25.0406C24.2504 25.5713 24.3262 26.0142 24.4779 26.3733C24.7334 26.9997 25.2044 27.4426 25.8152 27.666C26.4339 27.8895 27.0447 27.9573 27.8071 27.9573C28.1943 27.9573 28.5416 27.9374 28.857 27.8975C29.1723 27.8615 29.4837 27.7857 29.7911 27.678C30.4138 27.4586 30.8808 27.0316 31.1323 26.3972C31.2162 26.2017 31.28 25.9703 31.3159 25.7029H29.5635Z" fill="black"/>
<path d="M39.9902 25.7029C39.9782 25.7389 39.9702 25.7708 39.9583 25.7987C39.8545 26.066 39.6709 26.2735 39.4034 26.4212C39.1359 26.5688 38.7487 26.6406 38.2338 26.6406C37.3037 26.6406 36.7289 26.3533 36.5093 25.7748C36.4335 25.6072 36.3936 25.3638 36.3936 25.0406C36.3936 24.7174 36.4335 24.47 36.5093 24.3025C36.7289 23.7319 37.3037 23.4446 38.2338 23.4446C38.7448 23.4446 39.132 23.5204 39.3954 23.672C39.6629 23.8197 39.8505 24.0311 39.9583 24.3025C39.9623 24.3264 39.9702 24.3503 39.9822 24.3783H41.7426C41.6987 24.1229 41.6348 23.8995 41.559 23.7079C41.3075 23.0735 40.8325 22.6346 40.2137 22.4152C39.603 22.1957 38.9962 22.1199 38.2338 22.1319C37.4714 22.1199 36.8606 22.1957 36.2419 22.4152C35.6311 22.6346 35.1561 23.0735 34.9046 23.7079C34.7529 24.067 34.6771 24.5099 34.6771 25.0406C34.6771 25.5713 34.7529 26.0142 34.9046 26.3733C35.1601 26.9997 35.6311 27.4426 36.2419 27.666C36.8606 27.8895 37.4714 27.9573 38.2338 27.9573C38.621 27.9573 38.9683 27.9374 39.2836 27.8975C39.599 27.8615 39.9104 27.7857 40.2177 27.678C40.8405 27.4586 41.3075 27.0316 41.559 26.3972C41.6428 26.2017 41.7067 25.9703 41.7426 25.7029H39.9902Z" fill="black"/>
<path d="M44.2854 26.477V22.2875H42.6248V27.8017H48.1455V26.477H44.2854Z" fill="black"/>
<path d="M55.5384 26.3972C55.6861 26.0421 55.7579 25.5992 55.7619 25.0645C55.7659 24.5299 55.6901 24.079 55.5384 23.7159C55.2869 23.0815 54.8119 22.6426 54.1931 22.4232C53.5824 22.2037 52.9756 22.1279 52.2132 22.1399C51.4508 22.1279 50.84 22.2037 50.2213 22.4232C49.6105 22.6426 49.1355 23.0815 48.884 23.7159C48.7323 24.075 48.6565 24.5179 48.6565 25.0486C48.6565 25.5793 48.7323 26.0222 48.884 26.3813C49.1395 27.0077 49.6105 27.4506 50.2213 27.67C50.84 27.8895 51.4508 27.9693 52.2132 27.9573C52.6004 27.9613 52.9477 27.9453 53.2631 27.9014C53.5784 27.8615 53.8898 27.7897 54.1971 27.682C54.8199 27.4705 55.2869 27.0396 55.5384 26.3972ZM53.9377 24.3144C54.0095 24.49 54.0455 24.7414 54.0455 25.0685C54.0455 25.3917 54.0095 25.6391 53.9377 25.8067C53.8339 26.074 53.6503 26.2815 53.3828 26.4251C53.1154 26.5688 52.7281 26.6406 52.2132 26.6406C51.2831 26.6406 50.7083 26.3533 50.4887 25.7828C50.4129 25.6152 50.373 25.3718 50.373 25.0486C50.373 24.7254 50.4129 24.482 50.4887 24.3144C50.7083 23.7399 51.2831 23.4526 52.2132 23.4526C52.7242 23.4526 53.1114 23.5284 53.3748 23.68C53.6423 23.8316 53.8299 24.0431 53.9377 24.3144Z" fill="black"/>
<path d="M62.3525 22.2875H56.2769V23.6082H58.4844V27.8017H60.145V23.6082H62.3525V22.2875Z" fill="black"/>
<path d="M67.7973 22.2875V24.3783H64.7316V22.2875H63.071V27.8017H64.7316V25.7029H67.7973V27.8017H69.4499V22.2875H67.7973Z" fill="black"/>
<path d="M72.2442 27.8017V22.2875H70.5836V27.8017H72.2442Z" fill="black"/>
<path d="M78.3078 25.7029L75.31 22.2875H73.3699V27.8017H75.0305V24.6576L77.8168 27.8017H79.9604V22.2875H78.3078V25.7029Z" fill="black"/>
<path d="M88 27.8017L87.984 24.893H84.599V26.2097H85.9083C85.6169 26.497 85.1299 26.6406 84.4433 26.6406C83.5132 26.6406 82.9383 26.3533 82.7188 25.7748C82.643 25.6072 82.603 25.3638 82.603 25.0406C82.603 24.7174 82.643 24.47 82.7188 24.3025C82.9383 23.7319 83.5132 23.4446 84.4433 23.4446C84.9423 23.4446 85.3255 23.5164 85.5889 23.6601C85.8564 23.7997 86.044 24.0032 86.1518 24.2626H87.9241C87.8882 24.0511 87.8363 23.8636 87.7685 23.7079C87.517 23.0735 87.042 22.6346 86.4232 22.4152C85.8125 22.1957 85.2057 22.1199 84.4433 22.1319C83.6808 22.1199 83.0701 22.1957 82.4513 22.4152C81.8406 22.6346 81.3656 23.0735 81.1141 23.7079C80.9624 24.067 80.8866 24.5099 80.8866 25.0406C80.8866 25.5713 80.9624 26.0142 81.1141 26.3733C81.3696 26.9997 81.8366 27.4426 82.4553 27.662C82.7667 27.7698 83.0781 27.8456 83.3934 27.8895C83.7088 27.9334 84.0561 27.9573 84.4433 27.9573C85.3893 27.9573 86.1079 27.8256 86.6508 27.4107V27.8017H88Z" fill="black"/>
</svg>
