<svg width="21" height="21" viewBox="0 0 21 21" fill="none" xmlns="http://www.w3.org/2000/svg">
<g clip-path="url(#clip0_1169_3021)">
<path d="M10.4999 3.31712L10.4346 3.26085C9.36629 2.34036 7.98941 1.85786 6.58019 1.91015C5.17098 1.96245 3.83365 2.54566 2.83649 3.54279C2.83648 3.5428 2.83648 3.5428 2.83647 3.54281M10.4999 3.31712L2.45689 11.2071C0.549388 8.9601 0.649138 5.5896 2.76576 3.4721L2.83647 3.54281M10.4999 3.31712L10.5652 3.26082C11.6324 2.34032 13.0081 1.85714 14.4166 1.9081C15.825 1.95906 17.1622 2.54039 18.1601 3.5356C19.158 4.53082 19.743 5.86639 19.7978 7.2747C19.8526 8.68176 19.374 10.0576 18.458 11.1269L10.4998 19.1086L2.53049 11.1393M10.4999 3.31712L2.53049 11.1393M2.83647 3.54281C0.75814 5.62202 0.658956 8.93144 2.53049 11.1393M2.83647 3.54281L2.53049 11.1393M17.2798 10.1201L17.2801 10.1198C17.943 9.34677 18.2892 8.35178 18.2496 7.33421C18.2099 6.31664 17.7871 5.35164 17.066 4.63259C16.3449 3.91353 15.3787 3.49352 14.361 3.45671C13.3434 3.41991 12.3494 3.76903 11.5782 4.43412L11.5782 4.43414L10.4999 5.36475L9.4216 4.43414L9.42157 4.43412C8.65041 3.76903 7.65641 3.41991 6.63873 3.45671C5.62105 3.49352 4.65486 3.91353 3.93376 4.63259C3.21266 5.35164 2.78991 6.31664 2.75022 7.33421C2.71053 8.35178 3.05683 9.34677 3.71973 10.1198L3.71996 10.1201L3.81971 10.2356L3.8195 10.2358L3.82467 10.2409L10.4292 16.8463L10.4999 16.917L10.5706 16.8463L17.1751 10.2409L17.1753 10.2411L17.1801 10.2356L17.2798 10.1201Z" fill="black" stroke="white" stroke-width="0.2"/>
</g>
<defs>
<clipPath id="clip0_1169_3021">
<rect width="21" height="21" fill="white"/>
</clipPath>
</defs>
</svg>
